<?xml version="1.0" encoding="UTF-8" standalone="no"?>
<!-- Created with Inkscape (http://www.inkscape.org/) -->

<svg
   xmlns:dc="http://purl.org/dc/elements/1.1/"
   xmlns:cc="http://creativecommons.org/ns#"
   xmlns:rdf="http://www.w3.org/1999/02/22-rdf-syntax-ns#"
   xmlns:svg="http://www.w3.org/2000/svg"
   xmlns="http://www.w3.org/2000/svg"
   xmlns:sodipodi="http://sodipodi.sourceforge.net/DTD/sodipodi-0.dtd"
   xmlns:inkscape="http://www.inkscape.org/namespaces/inkscape"
   width="1296.9827"
   height="426.28687"
   viewBox="0 0 1296.9827 426.28687"
   id="svg2"
   version="1.1"
   inkscape:version="0.91 r13725"
   sodipodi:docname="journeelogo.svg">
  <defs
     id="defs4" />
  <sodipodi:namedview
     id="base"
     pagecolor="#ffffff"
     bordercolor="#666666"
     borderopacity="1.0"
     inkscape:pageopacity="0.0"
     inkscape:pageshadow="2"
     inkscape:zoom="0.33312252"
     inkscape:cx="1075.2982"
     inkscape:cy="159.61299"
     inkscape:document-units="px"
     inkscape:current-layer="layer1"
     showgrid="false"
     inkscape:window-width="1280"
     inkscape:window-height="666"
     inkscape:window-x="-8"
     inkscape:window-y="-8"
     inkscape:window-maximized="1"
     fit-margin-top="10"
     fit-margin-left="10"
     fit-margin-right="40"
     fit-margin-bottom="10"
     units="px" />
  <metadata
     id="metadata7">
    <rdf:RDF>
      <cc:Work
         rdf:about="">
        <dc:format>image/svg+xml</dc:format>
        <dc:type
           rdf:resource="http://purl.org/dc/dcmitype/StillImage" />
        <dc:title></dc:title>
      </cc:Work>
    </rdf:RDF>
  </metadata>
  <g
     inkscape:label="Layer 1"
     inkscape:groupmode="layer"
     id="layer1"
     transform="translate(-63.081337,-249.07896)">
    <path
       style="fill:none;stroke:#000000;stroke-width:2.42380548;stroke-miterlimit:4;stroke-dasharray:none"
       d="m 80.819367,266.01852 233.756263,0 c 12.514,0 22.58847,10.07446 22.58847,22.58848 l 0,352.95847 c 0,12.51401 -10.07447,22.58846 -22.58847,22.58846 l -233.756263,0 z"
       id="rect4136"
       inkscape:connector-curvature="0"
       sodipodi:nodetypes="csssscc" />
    <path
       style="fill:#deaa87;stroke:#000000;stroke-width:2.42380548;stroke-miterlimit:4;stroke-dasharray:none"
       d="m 74.29324,260.45547 233.75626,0 c 12.51402,0 22.58848,10.07446 22.58848,22.58848 l 0,352.95847 c 0,12.51401 -10.07446,22.58846 -22.58848,22.58846 l -233.75626,0 z"
       id="rect4136-9"
       inkscape:connector-curvature="0"
       sodipodi:nodetypes="csssscc" />
    <rect
       style="fill:#333333;stroke:#000000;stroke-width:1.48508668;stroke-miterlimit:4;stroke-dasharray:none"
       id="rect4161"
       width="16.68298"
       height="398.72604"
       x="257.00473"
       y="259.8215"
       ry="0" />
    <path
       style="fill:none;fill-rule:evenodd;stroke:#000000;stroke-width:1.18004167;stroke-linecap:butt;stroke-linejoin:miter;stroke-miterlimit:4;stroke-dasharray:none;stroke-opacity:1"
       d="m 257.22013,658.1835 c 2.95011,5.90021 2.95011,5.90021 2.95011,5.90021"
       id="path4163"
       inkscape:connector-curvature="0" />
    <path
       style="fill:none;fill-rule:evenodd;stroke:#000000;stroke-width:1.18004167;stroke-linecap:butt;stroke-linejoin:miter;stroke-miterlimit:4;stroke-dasharray:none;stroke-opacity:1"
       d="m 274.07786,658.60494 c 2.52866,5.47877 2.52866,5.47877 2.52866,5.47877"
       id="path4165"
       inkscape:connector-curvature="0" />
    <flowRoot
       xml:space="preserve"
       id="flowRoot4167"
       style="font-style:normal;font-weight:normal;font-size:40px;line-height:125%;font-family:sans-serif;letter-spacing:0px;word-spacing:0px;fill:#000000;fill-opacity:1;stroke:none;stroke-width:1px;stroke-linecap:butt;stroke-linejoin:miter;stroke-opacity:1"><flowRegion
         id="flowRegion4169"><rect
           id="rect4171"
           width="353.55341"
           height="109.09647"
           x="221.2234"
           y="298.78839" /></flowRegion><flowPara
         id="flowPara4173" /></flowRoot>    <g
       transform="matrix(3.422839,0,0,3.422839,-335.08246,-729.69042)"
       style="font-style:normal;font-weight:normal;font-size:40px;line-height:125%;font-family:sans-serif;letter-spacing:0px;word-spacing:0px;fill:#000000;fill-opacity:1;stroke:none;stroke-width:1px;stroke-linecap:butt;stroke-linejoin:miter;stroke-opacity:1"
       id="flowRoot4175">
      <path
         d="m 229.18652,366.9446 q -3.14453,0 -5.16113,-0.92285 l 0,-3.00781 q 2.66602,0.68359 5.09277,0.68359 8.27149,0 8.27149,-9.02343 l 0,-50.3125 3.48633,0 0,49.9707 q 0,12.6123 -11.68946,12.6123 z"
         style="font-style:normal;font-variant:normal;font-weight:300;font-stretch:normal;font-size:70px;font-family:'Open Sans';-inkscape-font-specification:'Open Sans Light'"
         id="path4217" />
      <path
         d="m 284.62598,335.70437 q 0,9.0918 -4.40918,14.21875 -4.40918,5.09277 -12.16797,5.09277 -4.8877,0 -8.61328,-2.3584 -3.72559,-2.35839 -5.70801,-6.76757 -1.98242,-4.40918 -1.98242,-10.18555 0,-9.0918 4.40918,-14.15039 4.40918,-5.09277 12.09961,-5.09277 7.65625,0 11.99707,5.16113 4.375,5.12695 4.375,14.08203 z m -29.32618,0 q 0,7.65625 3.34961,11.96289 3.38379,4.27246 9.53614,4.27246 6.15234,0 9.50195,-4.27246 3.38379,-4.30664 3.38379,-11.96289 0,-7.69043 -3.41797,-11.92871 -3.38379,-4.23828 -9.53613,-4.23828 -6.15235,0 -9.50196,4.23828 -3.31543,4.2041 -3.31543,11.92871 z"
         style="font-style:normal;font-variant:normal;font-weight:300;font-stretch:normal;font-size:70px;font-family:'Open Sans';-inkscape-font-specification:'Open Sans Light'"
         id="path4219" />
      <path
         d="m 297.85352,317.17898 0,24.0625 q 0,5.60547 2.35839,8.16894 2.3584,2.5293 7.31446,2.5293 6.63086,0 9.74121,-3.34961 3.14453,-3.34961 3.14453,-10.90332 l 0,-20.50781 3.34961,0 0,37.15332 -2.8711,0 -0.61523,-5.12695 -0.20508,0 q -3.62304,5.81054 -12.88574,5.81054 -12.68066,0 -12.68066,-13.56933 l 0,-24.26758 3.34961,0 z"
         style="font-style:normal;font-variant:normal;font-weight:300;font-stretch:normal;font-size:70px;font-family:'Open Sans';-inkscape-font-specification:'Open Sans Light'"
         id="path4221" />
      <path
         d="m 350.83203,316.46121 q 2.3584,0 5.05859,0.47851 l -0.64941,3.24707 q -2.32422,-0.58105 -4.81934,-0.58105 -4.75097,0 -7.79296,4.0332 -3.042,4.0332 -3.042,10.18555 l 0,20.50781 -3.38379,0 0,-37.15332 2.8711,0 0.3418,6.69922 0.23925,0 q 2.29004,-4.10157 4.8877,-5.74219 2.59765,-1.6748 6.28906,-1.6748 z"
         style="font-style:normal;font-variant:normal;font-weight:300;font-stretch:normal;font-size:70px;font-family:'Open Sans';-inkscape-font-specification:'Open Sans Light'"
         id="path4223" />
      <path
         d="m 389.31836,354.3323 0,-24.09668 q 0,-5.60547 -2.3584,-8.13477 -2.3584,-2.56347 -7.31445,-2.56347 -6.66504,0 -9.77539,3.38379 -3.07617,3.34961 -3.07617,10.90332 l 0,20.50781 -3.38379,0 0,-37.15332 2.87109,0 0.64941,5.09277 0.20508,0 q 3.62305,-5.81054 12.88574,-5.81054 12.64649,0 12.64649,13.56933 l 0,24.30176 -3.34961,0 z"
         style="font-style:normal;font-variant:normal;font-weight:300;font-stretch:normal;font-size:70px;font-family:'Open Sans';-inkscape-font-specification:'Open Sans Light'"
         id="path4225" />
      <path
         d="m 419.7041,355.01589 q -8.10058,0 -12.64648,-4.99023 -4.51172,-4.99024 -4.51172,-13.97949 0,-8.88672 4.375,-14.21875 4.375,-5.36621 11.79199,-5.36621 6.5625,0 10.35645,4.58007 3.79394,4.58008 3.79394,12.44141 l 0,2.73437 -26.76269,0 q 0.0684,7.65625 3.55468,11.68946 3.52051,4.0332 10.04883,4.0332 3.17871,0 5.57129,-0.44434 2.42676,-0.44433 6.11816,-1.91406 l 0,3.07617 q -3.14453,1.36719 -5.81054,1.84571 -2.66602,0.51269 -5.87891,0.51269 z m -0.99121,-35.54687 q -5.36621,0 -8.61328,3.55469 -3.24707,3.5205 -3.79395,10.18554 l 22.96875,0 q 0,-6.45996 -2.80273,-10.08301 -2.80273,-3.65722 -7.75879,-3.65722 z m -4.78516,-8.10059 q 2.49512,-2.70019 4.92188,-5.84472 2.46094,-3.17872 3.34961,-4.81934 l 4.81933,0 0,0.58105 q -1.23046,1.77735 -4.2041,4.7168 -2.93945,2.93945 -6.49414,5.91309 l -2.39258,0 0,-0.54688 z"
         style="font-style:normal;font-variant:normal;font-weight:300;font-stretch:normal;font-size:70px;font-family:'Open Sans';-inkscape-font-specification:'Open Sans Light'"
         id="path4227" />
      <path
         d="m 458.12207,355.01589 q -8.10059,0 -12.64648,-4.99023 -4.51172,-4.99024 -4.51172,-13.97949 0,-8.88672 4.375,-14.21875 4.375,-5.36621 11.79199,-5.36621 6.5625,0 10.35644,4.58007 3.79395,4.58008 3.79395,12.44141 l 0,2.73437 -26.7627,0 q 0.0684,7.65625 3.55469,11.68946 3.52051,4.0332 10.04883,4.0332 3.17871,0 5.57129,-0.44434 2.42676,-0.44433 6.11816,-1.91406 l 0,3.07617 q -3.14453,1.36719 -5.81054,1.84571 -2.66602,0.51269 -5.87891,0.51269 z m -0.99121,-35.54687 q -5.36621,0 -8.61328,3.55469 -3.24707,3.5205 -3.79395,10.18554 l 22.96875,0 q 0,-6.45996 -2.80273,-10.08301 -2.80274,-3.65722 -7.75879,-3.65722 z"
         style="font-style:normal;font-variant:normal;font-weight:300;font-stretch:normal;font-size:70px;font-family:'Open Sans';-inkscape-font-specification:'Open Sans Light'"
         id="path4229" />
    </g>
    <path
       style="fill:none;fill-rule:evenodd;stroke:#000000;stroke-width:2.36008334px;stroke-linecap:butt;stroke-linejoin:miter;stroke-opacity:1"
       d="m 528.49319,530.18941 708.06111,0"
       id="path4183"
       inkscape:connector-curvature="0" />
    <g
       transform="translate(960.54954,978.5403)"
       style="font-style:normal;font-weight:normal;font-size:40px;line-height:125%;font-family:sans-serif;letter-spacing:0px;word-spacing:0px;fill:#000000;fill-opacity:1;stroke:none;stroke-width:1px;stroke-linecap:butt;stroke-linejoin:miter;stroke-opacity:1"
       id="flowRoot4147">
      <path
         d="m -318.15723,-376.16556 3.91114,0 5.27343,13.73291 q 1.73584,4.70214 2.15332,6.78955 l 0.17579,0 q 0.28564,-1.12061 1.18652,-3.82325 0.92285,-2.72461 5.97656,-16.69921 l 3.91113,0 -10.34912,27.42187 q -1.53808,4.06494 -3.60351,5.75684 -2.04346,1.71386 -5.03174,1.71386 -1.66992,0 -3.2959,-0.37353 l 0,-2.92236 q 1.2085,0.26367 2.70264,0.26367 3.75732,0 5.36133,-4.21875 l 1.34033,-3.42774 -9.71192,-24.21386 z"
         style="font-style:normal;font-variant:normal;font-weight:normal;font-stretch:normal;font-size:45px;font-family:'Open Sans';-inkscape-font-specification:'Open Sans'"
         id="path4179" />
      <path
         d="m -270.87207,-364.14652 q 0,5.88867 -2.96631,9.20654 -2.96631,3.2959 -8.1958,3.2959 -3.22998,0 -5.73486,-1.51611 -2.50489,-1.51612 -3.86719,-4.35059 -1.36231,-2.83447 -1.36231,-6.63574 0,-5.88867 2.94434,-9.1626 2.94434,-3.2959 8.17383,-3.2959 5.05371,0 8.02002,3.36182 2.98828,3.36182 2.98828,9.09668 z m -18.34717,0 q 0,4.61426 1.8457,7.03125 1.84571,2.41699 5.42725,2.41699 3.58154,0 5.42725,-2.39502 1.86767,-2.41699 1.86767,-7.05322 0,-4.59229 -1.86767,-6.96533 -1.84571,-2.39502 -5.47119,-2.39502 -3.58155,0 -5.40528,2.35107 -1.82373,2.35108 -1.82373,7.00928 z"
         style="font-style:normal;font-variant:normal;font-weight:normal;font-stretch:normal;font-size:45px;font-family:'Open Sans';-inkscape-font-specification:'Open Sans'"
         id="path4181" />
      <path
         d="m -261.07227,-376.16556 0,15.62255 q 0,2.94434 1.34034,4.39454 1.34033,1.45019 4.19677,1.45019 3.7793,0 5.51514,-2.06543 1.75781,-2.06543 1.75781,-6.7456 l 0,-12.65625 3.64746,0 0,24.08203 -3.01025,0 -0.52734,-3.22998 -0.19776,0 q -1.1206,1.77978 -3.12011,2.72461 -1.97754,0.94482 -4.52637,0.94482 -4.39453,0 -6.5918,-2.0874 -2.17529,-2.0874 -2.17529,-6.67969 l 0,-15.75439 3.6914,0 z"
         style="font-style:normal;font-variant:normal;font-weight:normal;font-stretch:normal;font-size:45px;font-family:'Open Sans';-inkscape-font-specification:'Open Sans'"
         id="path4184" />
      <path
         d="m -225.91602,-376.60502 q 1.60401,0 2.87842,0.26367 l -0.50537,3.38379 q -1.49414,-0.32959 -2.63672,-0.32959 -2.92236,0 -5.00976,2.37305 -2.06543,2.37305 -2.06543,5.91064 l 0,12.91993 -3.64746,0 0,-24.08203 3.01025,0 0.41748,4.46044 0.17578,0 q 1.34033,-2.35107 3.22998,-3.62548 1.88965,-1.27442 4.15283,-1.27442 z"
         style="font-style:normal;font-variant:normal;font-weight:normal;font-stretch:normal;font-size:45px;font-family:'Open Sans';-inkscape-font-specification:'Open Sans'"
         id="path4186" />
      <path
         d="m -190.45215,-355.31351 -0.19775,0 q -2.52686,3.66943 -7.5586,3.66943 -4.72412,0 -7.36084,-3.22998 -2.61474,-3.22998 -2.61474,-9.18457 0,-5.95459 2.63672,-9.25049 2.63672,-3.2959 7.33886,-3.2959 4.89991,0 7.51465,3.55957 l 0.28565,0 -0.15381,-1.73584 -0.0879,-1.69189 0,-9.79981 3.64746,0 0,34.18946 -2.96631,0 -0.4834,-3.22998 z m -7.29492,0.61523 q 3.73535,0 5.40527,-2.02148 1.6919,-2.04346 1.6919,-6.56983 l 0,-0.76904 q 0,-5.11963 -1.71387,-7.29492 -1.69189,-2.19727 -5.42725,-2.19727 -3.208,0 -4.92187,2.50488 -1.6919,2.48291 -1.6919,7.03125 0,4.61426 1.6919,6.96534 1.69189,2.35107 4.96582,2.35107 z"
         style="font-style:normal;font-variant:normal;font-weight:normal;font-stretch:normal;font-size:45px;font-family:'Open Sans';-inkscape-font-specification:'Open Sans'"
         id="path4188" />
      <path
         d="m -175.59863,-352.08353 -3.64746,0 0,-24.08203 3.64746,0 0,24.08203 z m -3.95508,-30.60791 q 0,-1.25244 0.61523,-1.82373 0.61524,-0.59327 1.53809,-0.59327 0.87891,0 1.51611,0.59327 0.63721,0.59326 0.63721,1.82373 0,1.23047 -0.63721,1.8457 -0.6372,0.59326 -1.51611,0.59326 -0.92285,0 -1.53809,-0.59326 -0.61523,-0.61523 -0.61523,-1.8457 z"
         style="font-style:normal;font-variant:normal;font-weight:normal;font-stretch:normal;font-size:45px;font-family:'Open Sans';-inkscape-font-specification:'Open Sans'"
         id="path4190" />
      <path
         d="m -153.01074,-352.08353 -0.7251,-3.42774 -0.17578,0 q -1.80176,2.26319 -3.60352,3.07617 -1.77978,0.79102 -4.46045,0.79102 -3.58154,0 -5.625,-1.8457 -2.02148,-1.84571 -2.02148,-5.25147 0,-7.29492 11.66748,-7.64648 l 4.08691,-0.13184 0,-1.49414 q 0,-2.83447 -1.23046,-4.1748 -1.2085,-1.36231 -3.88916,-1.36231 -3.01026,0 -6.81153,1.8457 l -1.1206,-2.79052 q 1.77978,-0.9668 3.88916,-1.51612 2.13134,-0.54931 4.26269,-0.54931 4.30664,0 6.37207,1.91162 2.0874,1.91162 2.0874,6.13037 l 0,16.43555 -2.70263,0 z m -8.23975,-2.5708 q 3.40576,0 5.33936,-1.86768 1.95556,-1.86768 1.95556,-5.22949 l 0,-2.1753 -3.64746,0.15381 q -4.35058,0.15381 -6.28418,1.36231 -1.91162,1.18652 -1.91162,3.71338 0,1.97754 1.18653,3.01025 1.20849,1.03272 3.36181,1.03272 z"
         style="font-style:normal;font-variant:normal;font-weight:normal;font-stretch:normal;font-size:45px;font-family:'Open Sans';-inkscape-font-specification:'Open Sans'"
         id="path4192" />
      <path
         d="m -131.78516,-376.60502 q 1.60401,0 2.87842,0.26367 l -0.50537,3.38379 q -1.49414,-0.32959 -2.63672,-0.32959 -2.92236,0 -5.00976,2.37305 -2.06543,2.37305 -2.06543,5.91064 l 0,12.91993 -3.64746,0 0,-24.08203 3.01025,0 0.41748,4.46044 0.17578,0 q 1.34033,-2.35107 3.22998,-3.62548 1.88965,-1.27442 4.15283,-1.27442 z"
         style="font-style:normal;font-variant:normal;font-weight:normal;font-stretch:normal;font-size:45px;font-family:'Open Sans';-inkscape-font-specification:'Open Sans'"
         id="path4194" />
      <path
         d="m -128.22559,-376.16556 3.91114,0 5.27343,13.73291 q 1.73584,4.70214 2.15332,6.78955 l 0.17579,0 q 0.28564,-1.12061 1.18652,-3.82325 0.92285,-2.72461 5.97656,-16.69921 l 3.91113,0 -10.34912,27.42187 q -1.53808,4.06494 -3.60351,5.75684 -2.04346,1.71386 -5.03174,1.71386 -1.66992,0 -3.2959,-0.37353 l 0,-2.92236 q 1.2085,0.26367 2.70264,0.26367 3.75732,0 5.36133,-4.21875 l 1.34033,-3.42774 -9.71192,-24.21386 z"
         style="font-style:normal;font-variant:normal;font-weight:normal;font-stretch:normal;font-size:45px;font-family:'Open Sans';-inkscape-font-specification:'Open Sans'"
         id="path4196" />
      <path
         d="m -74.502441,-358.65336 q 0,3.36182 -2.504883,5.18555 -2.504883,1.82373 -7.03125,1.82373 -4.790039,0 -7.470703,-1.51611 l 0,-3.38379 q 1.73584,0.8789 3.713379,1.38427 1.999511,0.50538 3.845214,0.50538 2.856446,0 4.394532,-0.90088 1.538086,-0.92285 1.538086,-2.79053 0,-1.40625 -1.230469,-2.39502 -1.208496,-1.01074 -4.746094,-2.37305 -3.361816,-1.25244 -4.790039,-2.17529 -1.40625,-0.94482 -2.109375,-2.13135 -0.681152,-1.18652 -0.681152,-2.83447 0,-2.94434 2.395019,-4.63623 2.39502,-1.71387 6.569824,-1.71387 3.889161,0 7.60254,1.58203 l -1.296387,2.96631 q -3.625488,-1.49414 -6.569824,-1.49414 -2.592774,0 -3.911133,0.81299 -1.31836,0.81299 -1.31836,2.24121 0,0.9668 0.483399,1.64795 0.505371,0.68115 1.604004,1.29639 1.098633,0.61523 4.21875,1.77978 4.284668,1.56006 5.778808,3.14209 1.516114,1.58203 1.516114,3.97705 z"
         style="font-style:normal;font-variant:normal;font-weight:normal;font-stretch:normal;font-size:45px;font-family:'Open Sans';-inkscape-font-specification:'Open Sans'"
         id="path4198" />
      <path
         d="m -64.944336,-352.08353 -3.647461,0 0,-24.08203 3.647461,0 0,24.08203 z m -3.955078,-30.60791 q 0,-1.25244 0.615234,-1.82373 0.615235,-0.59327 1.538086,-0.59327 0.878907,0 1.516114,0.59327 0.637207,0.59326 0.637207,1.82373 0,1.23047 -0.637207,1.8457 -0.637207,0.59326 -1.516114,0.59326 -0.922851,0 -1.538086,-0.59326 -0.615234,-0.61523 -0.615234,-1.8457 z"
         style="font-style:normal;font-variant:normal;font-weight:normal;font-stretch:normal;font-size:45px;font-family:'Open Sans';-inkscape-font-specification:'Open Sans'"
         id="path4200" />
      <path
         d="m -26.470215,-352.08353 0,-15.66651 q 0,-2.87842 -1.230469,-4.30664 -1.230468,-1.45019 -3.823242,-1.45019 -3.405761,0 -5.031738,1.95556 -1.625977,1.95557 -1.625977,6.02051 l 0,13.44727 -3.647461,0 0,-15.66651 q 0,-2.87842 -1.230468,-4.30664 -1.230469,-1.45019 -3.845215,-1.45019 -3.427735,0 -5.031738,2.06543 -1.582032,2.04345 -1.582032,6.72363 l 0,12.63428 -3.647461,0 0,-24.08203 2.966309,0 0.593262,3.29589 0.175781,0 q 1.032715,-1.75781 2.900391,-2.74658 1.889648,-0.98877 4.21875,-0.98877 5.646972,0 7.382812,4.08692 l 0.175781,0 q 1.07666,-1.88965 3.120118,-2.98828 2.043457,-1.09864 4.658203,-1.09864 4.086914,0 6.108398,2.10938 2.043457,2.0874 2.043457,6.70166 l 0,15.71045 -3.647461,0 z"
         style="font-style:normal;font-variant:normal;font-weight:normal;font-stretch:normal;font-size:45px;font-family:'Open Sans';-inkscape-font-specification:'Open Sans'"
         id="path4202" />
      <path
         d="m -4.1240234,-351.64408 q -2.3510743,0 -4.3066407,-0.85693 -1.9335939,-0.87891 -3.2519529,-2.68067 l -0.263672,0 q 0.263672,2.10938 0.263672,3.99903 l 0,9.90966 -3.647461,0 0,-34.89257 2.966308,0 0.505372,3.29589 0.175781,0 q 1.40625,-1.97754 3.2739256,-2.85644 1.8676758,-0.87891 4.284668,-0.87891 4.79003902,0 7.3828125,3.27393 2.6147461,3.27392 2.6147461,9.18457 0,5.93262 -2.6586914,9.22851 -2.6367188,3.27393 -7.3388672,3.27393 z m -0.5273438,-21.86279 q -3.6914062,0 -5.3393555,2.04345 -1.6479493,2.04346 -1.6918943,6.50391 l 0,0.81299 q 0,5.07568 1.6918943,7.27295 1.6918946,2.17529 5.4272461,2.17529 3.1201172,0 4.87792973,-2.52685 1.77978517,-2.52686 1.77978517,-6.96534 0,-4.50439 -1.77978517,-6.89941 -1.75781253,-2.41699 -4.96582033,-2.41699 z"
         style="font-style:normal;font-variant:normal;font-weight:normal;font-stretch:normal;font-size:45px;font-family:'Open Sans';-inkscape-font-specification:'Open Sans'"
         id="path4204" />
      <path
         d="m 15.915039,-352.08353 -3.647461,0 0,-34.18946 3.647461,0 0,34.18946 z"
         style="font-style:normal;font-variant:normal;font-weight:normal;font-stretch:normal;font-size:45px;font-family:'Open Sans';-inkscape-font-specification:'Open Sans'"
         id="path4206" />
      <path
         d="m 27.34082,-352.08353 -3.647461,0 0,-24.08203 3.647461,0 0,24.08203 z m -3.955078,-30.60791 q 0,-1.25244 0.615235,-1.82373 0.615234,-0.59327 1.538085,-0.59327 0.878907,0 1.516114,0.59327 0.637207,0.59326 0.637207,1.82373 0,1.23047 -0.637207,1.8457 -0.637207,0.59326 -1.516114,0.59326 -0.922851,0 -1.538085,-0.59326 -0.615235,-0.61523 -0.615235,-1.8457 z"
         style="font-style:normal;font-variant:normal;font-weight:normal;font-stretch:normal;font-size:45px;font-family:'Open Sans';-inkscape-font-specification:'Open Sans'"
         id="path4208" />
      <path
         d="m 45.973633,-373.33109 -6.130371,0 0,21.24756 -3.647461,0 0,-21.24756 -4.306641,0 0,-1.64795 4.306641,-1.31836 0,-1.34033 q 0,-8.87696 7.756347,-8.87696 1.911622,0 4.482422,0.76905 l -0.944824,2.92236 q -2.109375,-0.68115 -3.603516,-0.68115 -2.065429,0 -3.054199,1.38428 -0.988769,1.3623 -0.988769,4.39453 l 0,1.56006 6.130371,0 0,2.83447 z m 8.041992,21.24756 -3.647461,0 0,-24.08203 3.647461,0 0,24.08203 z m -3.955078,-30.60791 q 0,-1.25244 0.615234,-1.82373 0.615235,-0.59327 1.538086,-0.59327 0.878906,0 1.516113,0.59327 0.637207,0.59326 0.637207,1.82373 0,1.23047 -0.637207,1.8457 -0.637207,0.59326 -1.516113,0.59326 -0.922851,0 -1.538086,-0.59326 -0.615234,-0.61523 -0.615234,-1.8457 z"
         style="font-style:normal;font-variant:normal;font-weight:normal;font-stretch:normal;font-size:45px;font-family:'Open Sans';-inkscape-font-specification:'Open Sans'"
         id="path4210" />
      <path
         d="m 71.92334,-351.64408 q -5.339356,0 -8.4375,-3.25195 -3.076172,-3.25196 -3.076172,-9.03077 0,-5.82275 2.856445,-9.25048 2.878418,-3.42774 7.712403,-3.42774 4.526367,0 7.163086,2.98828 2.636718,2.96631 2.636718,7.84424 l 0,2.30713 -16.589355,0 q 0.109863,4.24072 2.131347,6.43799 2.043458,2.19726 5.734864,2.19726 3.88916,0 7.690429,-1.62597 l 0,3.25195 q -1.933593,0.83496 -3.669433,1.18652 -1.713867,0.37354 -4.152832,0.37354 z m -0.98877,-21.90674 q -2.90039,0 -4.63623,1.88965 -1.713867,1.88965 -2.021485,5.22949 l 12.590332,0 q 0,-3.4497 -1.538085,-5.27344 -1.538086,-1.8457 -4.394532,-1.8457 z"
         style="font-style:normal;font-variant:normal;font-weight:normal;font-stretch:normal;font-size:45px;font-family:'Open Sans';-inkscape-font-specification:'Open Sans'"
         id="path4212" />
      <path
         d="m 103.36621,-355.31351 -0.19775,0 q -2.52686,3.66943 -7.558597,3.66943 -4.724121,0 -7.36084,-3.22998 -2.614746,-3.22998 -2.614746,-9.18457 0,-5.95459 2.636719,-9.25049 2.636719,-3.2959 7.338867,-3.2959 4.899907,0 7.514647,3.55957 l 0.28565,0 -0.15381,-1.73584 -0.0879,-1.69189 0,-9.79981 3.64746,0 0,34.18946 -2.96631,0 -0.4834,-3.22998 z m -7.294921,0.61523 q 3.735352,0 5.405271,-2.02148 1.6919,-2.04346 1.6919,-6.56983 l 0,-0.76904 q 0,-5.11963 -1.71387,-7.29492 -1.691895,-2.19727 -5.427246,-2.19727 -3.208008,0 -4.921875,2.50488 -1.691895,2.48291 -1.691895,7.03125 0,4.61426 1.691895,6.96534 1.691894,2.35107 4.96582,2.35107 z"
         style="font-style:normal;font-variant:normal;font-weight:normal;font-stretch:normal;font-size:45px;font-family:'Open Sans';-inkscape-font-specification:'Open Sans'"
         id="path4214" />
    </g>
    <g
       transform="matrix(3.422839,0,0,3.422839,-335.08246,-729.69042)"
       style="font-style:normal;font-weight:normal;font-size:40px;line-height:125%;font-family:sans-serif;letter-spacing:0px;word-spacing:0px;fill:#000000;fill-opacity:1;stroke:none;stroke-width:1px;stroke-linecap:butt;stroke-linejoin:miter;stroke-opacity:1"
       id="flowRoot4152">
      <path
         d="m 229.18652,366.9446 q -3.14453,0 -5.16113,-0.92285 l 0,-3.00781 q 2.66602,0.68359 5.09277,0.68359 8.27149,0 8.27149,-9.02343 l 0,-50.3125 3.48633,0 0,49.9707 q 0,12.6123 -11.68946,12.6123 z"
         style="font-style:normal;font-variant:normal;font-weight:300;font-stretch:normal;font-size:70px;font-family:'Open Sans';-inkscape-font-specification:'Open Sans Light'"
         id="path4164" />
      <path
         d="m 284.62598,335.70437 q 0,9.0918 -4.40918,14.21875 -4.40918,5.09277 -12.16797,5.09277 -4.8877,0 -8.61328,-2.3584 -3.72559,-2.35839 -5.70801,-6.76757 -1.98242,-4.40918 -1.98242,-10.18555 0,-9.0918 4.40918,-14.15039 4.40918,-5.09277 12.09961,-5.09277 7.65625,0 11.99707,5.16113 4.375,5.12695 4.375,14.08203 z m -29.32618,0 q 0,7.65625 3.34961,11.96289 3.38379,4.27246 9.53614,4.27246 6.15234,0 9.50195,-4.27246 3.38379,-4.30664 3.38379,-11.96289 0,-7.69043 -3.41797,-11.92871 -3.38379,-4.23828 -9.53613,-4.23828 -6.15235,0 -9.50196,4.23828 -3.31543,4.2041 -3.31543,11.92871 z"
         style="font-style:normal;font-variant:normal;font-weight:300;font-stretch:normal;font-size:70px;font-family:'Open Sans';-inkscape-font-specification:'Open Sans Light'"
         id="path4166" />
      <path
         d="m 297.85352,317.17898 0,24.0625 q 0,5.60547 2.35839,8.16894 2.3584,2.5293 7.31446,2.5293 6.63086,0 9.74121,-3.34961 3.14453,-3.34961 3.14453,-10.90332 l 0,-20.50781 3.34961,0 0,37.15332 -2.8711,0 -0.61523,-5.12695 -0.20508,0 q -3.62304,5.81054 -12.88574,5.81054 -12.68066,0 -12.68066,-13.56933 l 0,-24.26758 3.34961,0 z"
         style="font-style:normal;font-variant:normal;font-weight:300;font-stretch:normal;font-size:70px;font-family:'Open Sans';-inkscape-font-specification:'Open Sans Light'"
         id="path4168" />
      <path
         d="m 350.83203,316.46121 q 2.3584,0 5.05859,0.47851 l -0.64941,3.24707 q -2.32422,-0.58105 -4.81934,-0.58105 -4.75097,0 -7.79296,4.0332 -3.042,4.0332 -3.042,10.18555 l 0,20.50781 -3.38379,0 0,-37.15332 2.8711,0 0.3418,6.69922 0.23925,0 q 2.29004,-4.10157 4.8877,-5.74219 2.59765,-1.6748 6.28906,-1.6748 z"
         style="font-style:normal;font-variant:normal;font-weight:300;font-stretch:normal;font-size:70px;font-family:'Open Sans';-inkscape-font-specification:'Open Sans Light'"
         id="path4170" />
      <path
         d="m 389.31836,354.3323 0,-24.09668 q 0,-5.60547 -2.3584,-8.13477 -2.3584,-2.56347 -7.31445,-2.56347 -6.66504,0 -9.77539,3.38379 -3.07617,3.34961 -3.07617,10.90332 l 0,20.50781 -3.38379,0 0,-37.15332 2.87109,0 0.64941,5.09277 0.20508,0 q 3.62305,-5.81054 12.88574,-5.81054 12.64649,0 12.64649,13.56933 l 0,24.30176 -3.34961,0 z"
         style="font-style:normal;font-variant:normal;font-weight:300;font-stretch:normal;font-size:70px;font-family:'Open Sans';-inkscape-font-specification:'Open Sans Light'"
         id="path4172" />
      <path
         d="m 419.7041,355.01589 q -8.10058,0 -12.64648,-4.99023 -4.51172,-4.99024 -4.51172,-13.97949 0,-8.88672 4.375,-14.21875 4.375,-5.36621 11.79199,-5.36621 6.5625,0 10.35645,4.58007 3.79394,4.58008 3.79394,12.44141 l 0,2.73437 -26.76269,0 q 0.0684,7.65625 3.55468,11.68946 3.52051,4.0332 10.04883,4.0332 3.17871,0 5.57129,-0.44434 2.42676,-0.44433 6.11816,-1.91406 l 0,3.07617 q -3.14453,1.36719 -5.81054,1.84571 -2.66602,0.51269 -5.87891,0.51269 z m -0.99121,-35.54687 q -5.36621,0 -8.61328,3.55469 -3.24707,3.5205 -3.79395,10.18554 l 22.96875,0 q 0,-6.45996 -2.80273,-10.08301 -2.80273,-3.65722 -7.75879,-3.65722 z m -4.78516,-8.10059 q 2.49512,-2.70019 4.92188,-5.84472 2.46094,-3.17872 3.34961,-4.81934 l 4.81933,0 0,0.58105 q -1.23046,1.77735 -4.2041,4.7168 -2.93945,2.93945 -6.49414,5.91309 l -2.39258,0 0,-0.54688 z"
         style="font-style:normal;font-variant:normal;font-weight:300;font-stretch:normal;font-size:70px;font-family:'Open Sans';-inkscape-font-specification:'Open Sans Light'"
         id="path4174" />
      <path
         d="m 458.12207,355.01589 q -8.10059,0 -12.64648,-4.99023 -4.51172,-4.99024 -4.51172,-13.97949 0,-8.88672 4.375,-14.21875 4.375,-5.36621 11.79199,-5.36621 6.5625,0 10.35644,4.58007 3.79395,4.58008 3.79395,12.44141 l 0,2.73437 -26.7627,0 q 0.0684,7.65625 3.55469,11.68946 3.52051,4.0332 10.04883,4.0332 3.17871,0 5.57129,-0.44434 2.42676,-0.44433 6.11816,-1.91406 l 0,3.07617 q -3.14453,1.36719 -5.81054,1.84571 -2.66602,0.51269 -5.87891,0.51269 z m -0.99121,-35.54687 q -5.36621,0 -8.61328,3.55469 -3.24707,3.5205 -3.79395,10.18554 l 22.96875,0 q 0,-6.45996 -2.80273,-10.08301 -2.80274,-3.65722 -7.75879,-3.65722 z"
         style="font-style:normal;font-variant:normal;font-weight:300;font-stretch:normal;font-size:70px;font-family:'Open Sans';-inkscape-font-specification:'Open Sans Light'"
         id="path4176" />
    </g>
    <path
       style="fill:#333333;stroke:#000000;stroke-width:0.27249682;stroke-miterlimit:4;stroke-dasharray:none"
       d="m 259.6036,661.30364 -0.71573,-1.45933 7.5303,0 7.53029,0 0.45592,1.12767 c 0.25076,0.62021 0.5153,1.27691 0.58787,1.45933 0.10365,0.26056 -1.45507,0.33166 -7.2705,0.33166 l -7.40243,0 -0.71572,-1.45933 z"
       id="path4156"
       inkscape:connector-curvature="0" />
    <path
       style="fill:none;stroke:#000000;stroke-width:1.07992291;stroke-miterlimit:4;stroke-dasharray:none"
       d="m -807.58726,409.3965 104.14975,0 c 5.5756,0 10.06426,4.48867 10.06426,10.06427 l 0,157.26012 c 0,5.57559 -4.48866,10.06425 -10.06426,10.06425 l -104.14975,0 z"
       id="rect4136-2"
       inkscape:connector-curvature="0"
       sodipodi:nodetypes="csssscc" />
    <path
       style="fill:#deaa87;stroke:#000000;stroke-width:1.07992291;stroke-miterlimit:4;stroke-dasharray:none"
       d="m -810.49497,406.9179 104.14975,0 c 5.57561,0 10.06427,4.48866 10.06427,10.06426 l 0,157.26012 c 0,5.5756 -4.48866,10.06425 -10.06427,10.06425 l -104.14975,0 z"
       id="rect4136-9-9"
       inkscape:connector-curvature="0"
       sodipodi:nodetypes="csssscc" />
    <rect
       style="fill:#333333;stroke:#000000;stroke-width:0.66167819;stroke-miterlimit:4;stroke-dasharray:none"
       id="rect4161-0"
       width="7.4330764"
       height="177.65178"
       x="-729.08813"
       y="406.63544"
       ry="0" />
    <path
       style="fill:none;fill-rule:evenodd;stroke:#000000;stroke-width:0.52576578;stroke-linecap:butt;stroke-linejoin:miter;stroke-miterlimit:4;stroke-dasharray:none;stroke-opacity:1"
       d="m -728.99216,584.12502 c 1.31441,2.62884 1.31441,2.62884 1.31441,2.62884"
       id="path4163-3"
       inkscape:connector-curvature="0" />
    <path
       style="fill:none;fill-rule:evenodd;stroke:#000000;stroke-width:0.52576578;stroke-linecap:butt;stroke-linejoin:miter;stroke-miterlimit:4;stroke-dasharray:none;stroke-opacity:1"
       d="m -721.48123,584.3128 c 1.12665,2.44106 1.12665,2.44106 1.12665,2.44106"
       id="path4165-8"
       inkscape:connector-curvature="0" />
    <path
       style="fill:#333333;stroke:#000000;stroke-width:0.12141056;stroke-miterlimit:4;stroke-dasharray:none"
       d="m -727.93021,585.5152 -0.3189,-0.65021 3.35512,0 3.35511,0 0.20313,0.50243 c 0.11173,0.27634 0.22959,0.56893 0.26193,0.65021 0.0462,0.11609 -0.64831,0.14777 -3.23936,0.14777 l -3.29814,0 -0.31889,-0.6502 z"
       id="path4156-1"
       inkscape:connector-curvature="0" />
  </g>
</svg>
